<svg width="100" height="100" viewBox="0 0 100 100" fill="none" xmlns="http://www.w3.org/2000/svg">
<g clip-path="url(#clip0_2003_3)">
<rect width="100" height="100" rx="4" fill="black"/>
<path d="M54.8304 62.5524L57.7556 64.4742C58.5669 65.0071 59.0396 65.6304 59.1739 66.344C59.3184 67.0419 59.16 67.7419 58.6988 68.444L58.6834 68.4674C58.1812 69.2318 57.5709 69.7019 56.8524 69.8776C56.1442 70.0377 55.3845 69.8513 54.5732 69.3183L51.2736 67.1506C49.6198 66.0642 48.5279 64.9895 47.9978 63.9265C47.4678 62.8636 47.2666 61.8269 47.3944 60.8165L46.8729 60.6414L46.6115 61.0392C46.1401 61.7568 45.5398 62.1777 44.8106 62.3017C44.0761 62.3998 43.3059 62.1953 42.4999 61.6882C41.7096 61.1914 41.211 60.5734 41.0041 59.8345C40.8075 59.0799 40.9449 58.3438 41.4164 57.6262L45.4597 51.4715C46.4949 49.8958 47.8112 48.9291 49.4085 48.5714C51.0006 48.1879 52.8107 48.6624 54.8388 49.9948C56.3053 50.9582 57.2907 51.9741 57.7949 53.0424C58.2992 54.1107 58.4462 55.1788 58.2359 56.2468C58.0257 57.3147 57.5977 58.3401 56.952 59.323L54.8304 62.5524ZM50.114 59.8895C50.4572 60.115 50.7244 60.2012 50.9156 60.1481C51.1171 60.0794 51.3306 59.8735 51.556 59.5303L52.9858 57.3539C53.4163 56.6987 53.5807 56.1255 53.479 55.6343C53.3617 55.1329 53.0223 54.6977 52.4606 54.3287C51.899 53.9597 51.3726 53.8261 50.8814 53.9278C50.3903 54.0295 49.9294 54.4079 49.499 55.0632L48.0692 57.2395C47.8437 57.5828 47.7316 57.8553 47.733 58.0572C47.7446 58.2436 47.9298 58.4546 48.2887 58.6903L50.114 59.8895Z" fill="#EEEEEE"/>
<path d="M66.94 57.084C64.9427 57.084 63.2533 56.6453 61.872 55.768C60.4907 54.8907 59.4453 53.6773 58.736 52.128C58.0267 50.5787 57.672 48.796 57.672 46.78C57.672 44.7827 58.0267 43.0093 58.736 41.46C59.4453 39.892 60.4907 38.6693 61.872 37.792C63.2533 36.896 64.9427 36.448 66.94 36.448C68.9373 36.448 70.6173 36.896 71.98 37.792C73.3613 38.6693 74.4067 39.892 75.116 41.46C75.8253 43.0093 76.18 44.7827 76.18 46.78C76.18 48.796 75.8253 50.5787 75.116 52.128C74.4067 53.6773 73.3613 54.8907 71.98 55.768C70.6173 56.6453 68.9373 57.084 66.94 57.084ZM61.2 46.332C61.2 46.9107 61.34 47.4613 61.62 47.984C61.9 48.488 62.4507 48.8987 63.272 49.216C64.0933 49.5147 65.316 49.664 66.94 49.664C68.564 49.664 69.7773 49.5147 70.58 49.216C71.4013 48.8987 71.952 48.488 72.232 47.984C72.512 47.4613 72.652 46.9107 72.652 46.332C72.652 45.7347 72.512 45.2027 72.232 44.736C71.952 44.2507 71.4013 43.868 70.58 43.588C69.7773 43.2893 68.564 43.14 66.94 43.14C65.316 43.14 64.0933 43.2893 63.272 43.588C62.4507 43.868 61.9 44.2507 61.62 44.736C61.34 45.2027 61.2 45.7347 61.2 46.332Z" fill="#EEEEEE"/>
<path d="M94.4156 51.8533C93.5379 52.1708 92.7493 52.1584 92.0497 51.8159C91.3438 51.456 90.8177 50.8523 90.4714 50.0048C89.8614 48.5382 89.103 47.6216 88.1962 47.2549C87.3005 46.8643 86.291 46.8722 85.1676 47.2786L84.641 47.4691L86.1651 51.6819C86.4953 52.5947 86.5004 53.3769 86.1804 54.0287C85.8604 54.6804 85.2966 55.1524 84.4892 55.4445C83.6291 55.7557 82.8676 55.7632 82.2046 55.4671C81.5416 55.1709 81.0451 54.5665 80.7148 53.6537L79.3717 49.9412C78.6986 48.0806 78.4594 46.5691 78.6543 45.4068C78.8667 44.2382 79.3268 43.2876 80.0345 42.5552L79.7219 42.1025L79.3006 42.2549C78.4931 42.5471 77.7604 42.5243 77.1023 42.1867C76.4554 41.8253 75.9524 41.2033 75.5935 40.3207C75.2584 39.4494 75.2382 38.6528 75.5328 37.9308C75.8274 37.2089 76.3784 36.7018 77.1859 36.4097L83.9 33.9807C85.7782 33.3012 87.4617 33.2082 88.9504 33.7019C90.4391 34.1955 91.5455 35.4429 92.2694 37.4439C92.6441 38.4796 92.7829 39.412 92.6859 40.2411C92.5825 41.0527 92.3254 41.7412 91.9146 42.3067C91.5038 42.8722 91.0127 43.298 90.4413 43.5841L90.5651 43.9264C91.7487 43.796 92.8535 44.0514 93.8795 44.6926C94.923 45.3274 95.7179 46.3996 96.264 47.9092C96.6133 48.8746 96.6135 49.6983 96.2647 50.3804C95.9272 51.0385 95.3108 51.5294 94.4156 51.8533ZM83.0519 43.4883C83.1916 43.8745 83.3539 44.1036 83.5388 44.1756C83.7237 44.2477 84.0092 44.2139 84.3954 44.0742L86.8704 43.1788C87.6076 42.9121 88.0827 42.5516 88.2955 42.0974C88.5084 41.6433 88.5069 41.1178 88.2909 40.521C88.0687 39.9066 87.7305 39.493 87.2763 39.2801C86.8221 39.0673 86.2264 39.0942 85.4892 39.3609L83.0142 40.2564C82.628 40.3961 82.3838 40.544 82.2814 40.7001C82.1791 40.8562 82.201 41.1361 82.347 41.5399L83.0519 43.4883Z" fill="#EEEEEE"/>
<path d="M83.0449 64.2883C82.1541 64.5668 81.3429 64.5368 80.6112 64.1984C79.8974 63.8543 79.3985 63.228 79.1144 62.3194C78.8359 61.4286 78.8626 60.6379 79.1943 59.9475C79.5384 59.2337 80.2092 58.7208 81.2069 58.4089L92.7252 54.8081C93.7229 54.4962 94.5576 54.5384 95.2291 54.9348C95.9128 55.3077 96.394 55.9396 96.6725 56.8305C96.9565 57.7391 96.8942 58.5409 96.4856 59.2358C96.0948 59.9251 95.454 60.409 94.5632 60.6875C93.9575 60.8769 93.448 60.9677 93.0349 60.9599C92.634 60.9288 92.2899 60.8603 92.0026 60.7546C91.7097 60.631 91.4369 60.5403 91.1841 60.4824C90.9257 60.4067 90.6362 60.419 90.3155 60.5192L90.2254 61.0755C90.3468 61.2135 90.5439 61.4062 90.8167 61.6534C91.084 61.8827 91.3842 62.2485 91.7172 62.7507C92.0446 63.235 92.3531 63.9404 92.6428 64.8669L95.0572 72.5903C95.2856 73.3208 95.1988 74.0128 94.7969 74.6666C94.4128 75.3147 93.8287 75.7613 93.0448 76.0063C92.2431 76.257 91.4909 76.2281 90.7882 75.9197C90.1033 75.6058 89.6467 75.0836 89.4183 74.3531L87.0039 66.6297C86.7143 65.7032 86.5661 64.9477 86.5593 64.3631C86.547 63.7607 86.5854 63.2891 86.6744 62.9483C86.7757 62.5842 86.837 62.3108 86.8581 62.1281L86.4405 61.7306C86.1198 61.8309 85.8748 61.9857 85.7056 62.1951C85.5308 62.3866 85.3582 62.6166 85.1878 62.885C85.0119 63.1356 84.7681 63.3878 84.4563 63.6417C84.139 63.8778 83.6685 64.0934 83.0449 64.2883Z" fill="#EEEEEE"/>
<path d="M40.1164 86.5951C39.3069 86.1693 38.7799 85.6073 38.5355 84.9093C38.3076 84.2199 38.4196 83.4457 38.8715 82.5866L40.7096 79.0926C41.6308 77.3414 42.5947 76.1506 43.6013 75.5201C44.608 74.8896 45.6203 74.589 46.6384 74.6184L46.7622 74.0824L46.3409 73.8608C45.581 73.461 45.104 72.9042 44.91 72.1905C44.7412 71.4689 44.8701 70.6826 45.2968 69.8313C45.7148 68.9966 46.2772 68.4488 46.984 68.1878C47.7073 67.9356 48.4489 68.0093 49.2088 68.4091L57.8819 72.9717C59.6496 73.9016 60.0989 75.1926 59.2298 76.8446C58.8387 77.588 58.3111 78.0697 57.6469 78.2898C56.9827 78.5099 56.1964 78.381 55.2877 77.903L50.4556 75.361C49.8443 75.0394 49.3519 75.2338 48.9782 75.9442L48.0396 77.7284C48.929 77.9221 49.8689 78.1001 50.8591 78.2625C51.8494 78.4249 52.7328 78.7103 53.5092 79.1187C54.3352 79.5533 54.8626 80.0944 55.0914 80.742C55.3454 81.3818 55.2551 82.1148 54.8206 82.9408C54.3947 83.7503 53.8419 84.2398 53.1621 84.4095C52.5074 84.5713 51.7628 84.4432 50.9281 84.0252C50.1429 83.6333 49.3904 83.0792 48.6704 82.363C47.9756 81.6389 47.2965 80.9653 46.633 80.342L44.001 85.2851C43.5491 86.1441 42.9745 86.675 42.2773 86.8777C41.5966 87.0891 40.8763 86.9949 40.1164 86.5951Z" fill="#EEEEEE"/>
<path d="M87.94 98.084C85.9427 98.084 84.2533 97.6453 82.872 96.768C81.4907 95.8907 80.4453 94.6773 79.736 93.128C79.0267 91.5787 78.672 89.796 78.672 87.78C78.672 85.7827 79.0267 84.0093 79.736 82.46C80.4453 80.892 81.4907 79.6693 82.872 78.792C84.2533 77.896 85.9427 77.448 87.94 77.448C89.9373 77.448 91.6173 77.896 92.98 78.792C94.3613 79.6693 95.4067 80.892 96.116 82.46C96.8253 84.0093 97.18 85.7827 97.18 87.78C97.18 89.796 96.8253 91.5787 96.116 93.128C95.4067 94.6773 94.3613 95.8907 92.98 96.768C91.6173 97.6453 89.9373 98.084 87.94 98.084ZM82.2 87.332C82.2 87.9107 82.34 88.4613 82.62 88.984C82.9 89.488 83.4507 89.8987 84.272 90.216C85.0933 90.5147 86.316 90.664 87.94 90.664C89.564 90.664 90.7773 90.5147 91.58 90.216C92.4013 89.8987 92.952 89.488 93.232 88.984C93.512 88.4613 93.652 87.9107 93.652 87.332C93.652 86.7347 93.512 86.2027 93.232 85.736C92.952 85.2507 92.4013 84.868 91.58 84.588C90.7773 84.2893 89.564 84.14 87.94 84.14C86.316 84.14 85.0933 84.2893 84.272 84.588C83.4507 84.868 82.9 85.2507 82.62 85.736C82.34 86.2027 82.2 86.7347 82.2 87.332Z" fill="#EEEEEE"/>
<path d="M77.116 92.3687C77.6211 93.0631 77.7996 93.7527 77.6514 94.4376C77.4991 95.1485 77.0833 95.751 76.404 96.2451C75.6945 96.7611 74.9856 96.9766 74.2775 96.8916C73.5803 96.8216 72.9791 96.4395 72.4741 95.7451L65.4578 86.0988C65.2492 85.812 65.0255 85.6631 64.7867 85.6521C64.5589 85.6563 64.3428 85.8827 64.1383 86.3315C63.7019 87.3183 63.2827 88.1541 62.8806 88.839C62.4895 89.5389 61.9392 90.1469 61.2297 90.663C60.2485 91.3767 59.3221 91.6581 58.4506 91.5071C57.5792 91.3562 56.8415 90.8656 56.2376 90.0354C55.5898 89.1447 55.3619 88.2602 55.554 87.3818C55.731 86.5145 56.4082 85.6526 57.5857 84.7961L62.2503 81.4033C63.2466 80.6786 64.1592 80.188 64.9881 79.9313C65.828 79.6897 66.6467 79.7521 67.4441 80.1185C68.2264 80.4958 69.0457 81.2733 69.9022 82.4507L77.116 92.3687Z" fill="#EEEEEE"/>
<path d="M57.056 94.192C57.056 95.0507 56.7947 95.7507 56.272 96.292C55.7493 96.8333 55.0867 97.104 54.284 97.104H39.472C38.6507 97.104 37.96 96.8427 37.4 96.32C36.84 95.7787 36.56 95.0693 36.56 94.192C36.56 93.2587 36.84 92.5307 37.4 92.008C37.9413 91.4667 38.6133 91.196 39.416 91.196H54.284C55.0867 91.196 55.7493 91.4853 56.272 92.064C56.7947 92.624 57.056 93.3333 57.056 94.192Z" fill="#EEEEEE"/>
<path d="M69.94 79.084C67.9427 79.084 66.2533 78.6453 64.872 77.768C63.4907 76.8907 62.4453 75.6773 61.736 74.128C61.0267 72.5787 60.672 70.796 60.672 68.78C60.672 66.7827 61.0267 65.0093 61.736 63.46C62.4453 61.892 63.4907 60.6693 64.872 59.792C66.2533 58.896 67.9427 58.448 69.94 58.448C71.9373 58.448 73.6173 58.896 74.98 59.792C76.3613 60.6693 77.4067 61.892 78.116 63.46C78.8253 65.0093 79.18 66.7827 79.18 68.78C79.18 70.796 78.8253 72.5787 78.116 74.128C77.4067 75.6773 76.3613 76.8907 74.98 77.768C73.6173 78.6453 71.9373 79.084 69.94 79.084ZM64.2 68.332C64.2 68.9107 64.34 69.4613 64.62 69.984C64.9 70.488 65.4507 70.8987 66.272 71.216C67.0933 71.5147 68.316 71.664 69.94 71.664C71.564 71.664 72.7773 71.5147 73.58 71.216C74.4013 70.8987 74.952 70.488 75.232 69.984C75.512 69.4613 75.652 68.9107 75.652 68.332C75.652 67.7347 75.512 67.2027 75.232 66.736C74.952 66.2507 74.4013 65.868 73.58 65.588C72.7773 65.2893 71.564 65.14 69.94 65.14C68.316 65.14 67.0933 65.2893 66.272 65.588C65.4507 65.868 64.9 66.2507 64.62 66.736C64.34 67.2027 64.2 67.7347 64.2 68.332Z" fill="#EEEEEE"/>
<path d="M4.95 98C4.65 98 4.37 97.9667 4.11 97.9C3.85667 97.8333 3.65 97.7067 3.49 97.52C3.33 97.3333 3.25 97.0567 3.25 96.69C3.25 96.3833 3.32 96.1267 3.46 95.92C3.6 95.7133 3.77333 95.5367 3.98 95.39C4.18667 95.2433 4.38667 95.11 4.58 94.99L6.13 94.02C6.38333 93.86 6.55 93.7267 6.63 93.62C6.71 93.5133 6.75 93.3967 6.75 93.27C6.75 93.1567 6.71333 93.06 6.64 92.98C6.57333 92.9 6.41333 92.86 6.16 92.86C5.91333 92.86 5.65333 92.8867 5.38 92.94C5.10667 92.9933 4.84333 93.02 4.59 93.02C4.22333 93.02 3.92333 92.9333 3.69 92.76C3.46333 92.58 3.35 92.3167 3.35 91.97C3.35 91.6367 3.47 91.3767 3.71 91.19C3.95 90.9967 4.27333 90.86 4.68 90.78C5.09333 90.7 5.55333 90.66 6.06 90.66C6.88 90.66 7.51333 90.8133 7.96 91.12C8.41333 91.4267 8.64 91.9033 8.64 92.55C8.64 92.9967 8.51 93.3767 8.25 93.69C7.99667 94.0033 7.64333 94.31 7.19 94.61L5.34 95.83H7.63C8.00333 95.83 8.29667 95.9233 8.51 96.11C8.73 96.29 8.84 96.56 8.84 96.92C8.84 97.28 8.73 97.55 8.51 97.73C8.29667 97.91 8.00333 98 7.63 98H4.95ZM12.3109 98.03C11.6443 98.03 11.1009 97.88 10.6809 97.58C10.2609 97.28 9.95094 96.8533 9.75094 96.3C9.5576 95.7467 9.46094 95.0967 9.46094 94.35C9.46094 93.6033 9.56427 92.9567 9.77094 92.41C9.98427 91.8567 10.3009 91.4267 10.7209 91.12C11.1409 90.8133 11.6709 90.66 12.3109 90.66C12.9509 90.66 13.4809 90.8133 13.9009 91.12C14.3276 91.4267 14.6443 91.8567 14.8509 92.41C15.0643 92.9567 15.1709 93.6033 15.1709 94.35C15.1709 95.0967 15.0709 95.7467 14.8709 96.3C14.6776 96.8533 14.3709 97.28 13.9509 97.58C13.5309 97.88 12.9843 98.03 12.3109 98.03ZM10.5809 94.21C10.5809 94.4167 10.6243 94.6133 10.7109 94.8C10.8043 94.98 10.9743 95.1267 11.2209 95.24C11.4743 95.3467 11.8376 95.4 12.3109 95.4C12.7909 95.4 13.1543 95.3467 13.4009 95.24C13.6543 95.1267 13.8243 94.98 13.9109 94.8C14.0043 94.6133 14.0509 94.4167 14.0509 94.21C14.0509 93.9967 14.0043 93.8067 13.9109 93.64C13.8243 93.4667 13.6543 93.33 13.4009 93.23C13.1543 93.1233 12.7909 93.07 12.3109 93.07C11.8376 93.07 11.4743 93.1233 11.2209 93.23C10.9743 93.33 10.8043 93.4667 10.7109 93.64C10.6243 93.8067 10.5809 93.9967 10.5809 94.21ZM17.3719 98C17.0719 98 16.7919 97.9667 16.5319 97.9C16.2785 97.8333 16.0719 97.7067 15.9119 97.52C15.7519 97.3333 15.6719 97.0567 15.6719 96.69C15.6719 96.3833 15.7419 96.1267 15.8819 95.92C16.0219 95.7133 16.1952 95.5367 16.4019 95.39C16.6085 95.2433 16.8085 95.11 17.0019 94.99L18.5519 94.02C18.8052 93.86 18.9719 93.7267 19.0519 93.62C19.1319 93.5133 19.1719 93.3967 19.1719 93.27C19.1719 93.1567 19.1352 93.06 19.0619 92.98C18.9952 92.9 18.8352 92.86 18.5819 92.86C18.3352 92.86 18.0752 92.8867 17.8019 92.94C17.5285 92.9933 17.2652 93.02 17.0119 93.02C16.6452 93.02 16.3452 92.9333 16.1119 92.76C15.8852 92.58 15.7719 92.3167 15.7719 91.97C15.7719 91.6367 15.8919 91.3767 16.1319 91.19C16.3719 90.9967 16.6952 90.86 17.1019 90.78C17.5152 90.7 17.9752 90.66 18.4819 90.66C19.3019 90.66 19.9352 90.8133 20.3819 91.12C20.8352 91.4267 21.0619 91.9033 21.0619 92.55C21.0619 92.9967 20.9319 93.3767 20.6719 93.69C20.4185 94.0033 20.0652 94.31 19.6119 94.61L17.7619 95.83H20.0519C20.4252 95.83 20.7185 95.9233 20.9319 96.11C21.1519 96.29 21.2619 96.56 21.2619 96.92C21.2619 97.28 21.1519 97.55 20.9319 97.73C20.7185 97.91 20.4252 98 20.0519 98H17.3719ZM25.4028 93.66C25.8028 93.66 26.1561 93.72 26.4628 93.84C26.7761 93.96 27.0195 94.1667 27.1928 94.46C27.3728 94.7467 27.4628 95.1533 27.4628 95.68C27.4628 96.14 27.3795 96.5233 27.2128 96.83C27.0528 97.13 26.8328 97.3667 26.5528 97.54C26.2795 97.7067 25.9695 97.8267 25.6228 97.9C25.2761 97.9667 24.9161 98 24.5428 98C23.6961 98 23.0395 97.8967 22.5728 97.69C22.1061 97.4767 21.8728 97.1133 21.8728 96.6C21.8728 96.24 21.9928 95.9633 22.2328 95.77C22.4728 95.57 22.7828 95.4933 23.1628 95.54C23.4561 95.5733 23.7761 95.61 24.1228 95.65C24.4695 95.69 24.8361 95.7067 25.2228 95.7C25.4828 95.7 25.6695 95.66 25.7828 95.58C25.9028 95.4933 25.9628 95.37 25.9628 95.21C25.9628 95.0167 25.9028 94.87 25.7828 94.77C25.6695 94.6633 25.4828 94.61 25.2228 94.61H23.2128C22.8528 94.61 22.5761 94.5433 22.3828 94.41C22.1895 94.2767 22.0928 94.0367 22.0928 93.69V92.04C22.0928 91.6933 22.1461 91.4267 22.2528 91.24C22.3661 91.0533 22.5195 90.9233 22.7128 90.85C22.9128 90.7767 23.1395 90.74 23.3928 90.74H26.1028C26.5361 90.74 26.8395 90.8367 27.0128 91.03C27.1861 91.2233 27.2728 91.4767 27.2728 91.79C27.2728 92.1033 27.1861 92.3633 27.0128 92.57C26.8395 92.77 26.5361 92.87 26.1028 92.87C25.7561 92.87 25.4095 92.7933 25.0628 92.64C24.7228 92.4867 24.4361 92.2767 24.2028 92.01H24.0028V93.66H25.4028Z" fill="#EEEEEE"/>
</g>
<defs>
<clipPath id="clip0_2003_3">
<rect width="100" height="100" rx="4" fill="white"/>
</clipPath>
</defs>
</svg>
